<?xml version="1.0" standalone="no"?>
<!DOCTYPE svg PUBLIC "-//W3C//DTD SVG 20010904//EN"
 "http://www.w3.org/TR/2001/REC-SVG-20010904/DTD/svg10.dtd">
<svg version="1.0" xmlns="http://www.w3.org/2000/svg"
 width="254.000000pt" height="227.000000pt" viewBox="0 0 254.000000 227.000000"
 preserveAspectRatio="xMidYMid meet">
<metadata>
Created by potrace 1.10, written by Peter Selinger 2001-2011
</metadata>
<g transform="translate(0.000000,227.000000) scale(0.100000,-0.100000)"
fill="#000000" stroke="none">
<path d="M953 2081 c-52 -32 -37 -80 30 -96 15 -4 27 -11 27 -16 0 -5 -14 -36
-30 -69 -32 -63 -28 -75 11 -37 51 50 83 62 136 50 56 -13 67 -7 83 43 18 54
7 77 -52 107 -74 38 -162 45 -205 18z m155 -40 c42 -13 64 -36 60 -63 -2 -19
-10 -23 -46 -26 -28 -2 -41 1 -37 8 3 5 2 10 -4 10 -5 0 -13 -4 -16 -10 -9
-14 -25 -12 -20 3 6 16 -42 70 -55 62 -6 -3 -10 1 -10 10 0 9 4 14 8 11 4 -2
13 -1 20 3 15 9 56 6 100 -8z"/>
<path d="M1143 1880 c-12 -5 -25 -15 -30 -22 -4 -8 -37 -24 -73 -37 -36 -13
-125 -54 -198 -93 -123 -64 -137 -69 -175 -63 -23 4 -50 11 -59 16 -22 12 -48
-24 -48 -64 0 -37 45 -82 96 -96 62 -17 165 -14 196 7 43 28 187 146 187 155
3 30 -90 -22 -159 -90 -13 -14 -26 -20 -28 -14 -5 15 -23 14 -20 -1 2 -8 -5
-12 -16 -10 -11 2 -15 -1 -11 -7 9 -15 -100 -14 -142 1 -18 7 -33 18 -33 25 0
7 -6 13 -12 13 -9 1 -7 5 3 13 10 7 40 12 72 11 44 -2 59 1 73 17 9 10 25 19
34 19 9 0 25 8 36 18 30 27 103 62 131 62 16 0 22 4 17 12 -5 7 0 9 14 6 12
-3 20 -2 19 4 -1 5 16 15 37 23 21 7 42 19 46 26 4 6 13 8 20 4 7 -4 18 2 26
14 19 26 35 27 54 1 9 -13 21 -18 33 -14 20 6 57 -21 57 -42 0 -7 6 -14 12
-16 16 -6 -36 -69 -77 -94 -16 -10 -43 -32 -59 -48 -16 -17 -26 -25 -22 -18 4
6 5 12 3 12 -3 0 -14 -18 -26 -40 -35 -68 -71 -121 -86 -127 -8 -3 -15 -11
-15 -19 0 -7 -8 -18 -18 -23 -12 -6 -19 -22 -20 -41 0 -16 -8 -37 -16 -45 -23
-24 -36 -82 -36 -168 0 -98 16 -138 70 -172 62 -39 65 -39 104 -4 28 24 34 34
25 45 -6 7 -8 17 -5 22 3 5 -3 20 -13 33 -31 41 -34 88 -7 144 45 97 336 353
336 295 0 -17 -81 -144 -129 -200 -25 -30 -39 -50 -31 -45 8 5 22 10 32 10 15
1 15 -2 -4 -29 -12 -17 -46 -57 -77 -89 -30 -31 -51 -57 -45 -57 6 0 21 12 35
26 32 34 159 124 176 124 7 0 13 -7 13 -15 0 -8 14 -43 31 -77 18 -36 33 -86
36 -118 9 -87 43 -136 111 -158 29 -10 40 -8 80 12 26 13 55 32 64 43 25 27
108 191 123 243 52 174 65 222 70 275 6 55 4 65 -22 110 -37 63 -118 115 -179
115 -157 0 -475 -210 -620 -409 -24 -34 -46 -61 -48 -61 -2 0 -4 18 -4 41 -1
22 -10 56 -21 75 -25 43 -25 41 -2 47 11 2 29 22 41 43 21 40 46 77 100 152
19 26 49 51 78 65 30 14 48 30 50 42 2 12 13 25 25 30 32 14 29 80 -4 107 -20
16 -145 79 -152 77 -1 0 -12 -4 -24 -9z m631 -246 c9 -3 16 -15 16 -26 0 -17
3 -18 15 -8 19 15 39 1 62 -44 20 -38 24 -79 12 -131 -5 -22 -11 -59 -13 -82
-3 -23 -9 -50 -14 -60 -6 -10 -21 -52 -35 -93 -33 -99 -49 -127 -67 -123 -12
4 -12 3 -1 -5 11 -8 11 -14 0 -33 -46 -87 -96 -119 -158 -100 -32 9 -76 41
-58 41 3 0 -1 16 -9 35 -19 45 -19 95 0 95 8 0 17 -4 20 -9 10 -15 46 0 63 25
8 13 19 22 23 19 4 -2 7 10 8 28 0 17 5 33 11 35 5 2 8 9 5 16 -3 8 2 20 10
29 9 9 18 30 19 47 2 18 9 35 14 38 6 4 10 24 8 45 -1 20 1 37 5 37 8 0 20 67
20 113 0 15 5 27 11 27 8 0 8 4 -1 15 -7 8 -9 15 -4 15 5 0 -3 8 -18 18 -22
14 -25 21 -16 30 13 13 47 16 72 6z m-76 -59 c2 -2 -6 -52 -17 -112 -23 -119
-78 -297 -101 -331 -15 -22 -16 -21 -93 51 l-78 74 76 75 c72 72 75 76 65 104
-6 16 -29 45 -52 66 l-41 36 31 16 c49 25 102 35 157 29 28 -3 52 -7 53 -8z
m-198 -153 c0 -13 -4 -20 -10 -17 -5 3 -10 0 -10 -8 0 -19 -34 -49 -45 -40 -4
5 -5 0 -2 -9 3 -10 1 -20 -5 -24 -7 -5 -8 -2 -3 6 6 10 4 12 -8 7 -9 -3 -19
-2 -22 2 -6 10 19 61 34 70 5 3 11 13 13 20 2 8 10 22 18 31 13 16 16 16 28 2
6 -9 12 -26 12 -40z m-488 -161 c0 -9 2 -20 3 -26 2 -5 3 -14 4 -20 1 -5 6 -3
11 5 8 12 10 11 10 -7 0 -13 -5 -23 -11 -23 -8 0 -9 -4 0 -13 13 -16 5 -28
-15 -20 -8 3 -14 0 -14 -7 0 -6 4 -9 9 -5 5 3 12 1 16 -4 3 -6 12 -8 19 -5 24
9 36 -115 12 -135 -11 -9 -17 -8 -29 4 -9 8 -20 15 -25 15 -14 0 -36 54 -23
58 13 4 15 52 2 52 -5 0 -12 -6 -14 -12 -3 -7 -5 8 -5 35 1 26 5 47 9 47 5 0
6 13 3 30 -4 16 -3 42 1 57 6 27 7 27 21 9 8 -11 15 -27 16 -35z"/>
<path d="M1045 1671 c-6 -11 -51 -87 -102 -170 -54 -88 -86 -152 -80 -154 7
-2 20 8 30 22 l19 26 -7 -25 c-4 -14 -13 -30 -21 -36 -7 -6 -11 -14 -7 -17 3
-4 0 -13 -6 -21 -7 -8 -9 -21 -5 -27 5 -8 3 -9 -5 -5 -8 5 -14 0 -18 -13 -3
-12 -12 -21 -19 -21 -8 0 -14 -9 -14 -21 0 -11 -9 -34 -21 -51 -34 -47 -15
-43 24 6 20 24 54 63 77 87 45 49 58 82 41 103 -10 11 -8 17 6 25 10 6 12 11
5 11 -8 0 -9 5 -3 18 5 9 17 34 26 55 9 20 22 37 29 37 9 0 12 9 8 28 -4 22
-2 25 9 15 7 -7 18 -13 24 -13 5 0 4 4 -4 9 -11 7 -11 15 -1 45 6 20 17 36 24
36 8 0 12 13 12 35 -1 39 -7 44 -21 16z"/>
<path d="M1827 845 c-21 -7 -46 -11 -56 -8 -22 6 -102 -27 -83 -34 8 -3 19 0
25 6 18 18 52 13 82 -13 35 -30 32 -37 -49 -140 -64 -80 -64 -111 -1 -40 40
46 46 49 101 54 41 3 67 1 85 -9 24 -13 29 -13 53 2 14 10 29 29 32 43 6 22 0
32 -37 65 -24 21 -47 39 -51 39 -3 0 -19 11 -35 24 -26 22 -31 23 -66 11z m81
-69 c15 -8 35 -23 45 -34 27 -29 1 -46 -58 -38 -53 8 -61 18 -45 57 14 33 20
35 58 15z"/>
<path d="M912 753 c-17 -38 -36 -81 -42 -97 -6 -16 -13 -26 -16 -23 -3 3 2 20
12 39 15 30 15 32 1 19 -22 -18 -21 -9 3 31 33 54 23 55 -16 2 -19 -27 -55
-90 -80 -141 -25 -50 -52 -97 -60 -104 -8 -6 -14 -28 -14 -48 0 -38 18 -113
29 -121 3 -3 19 -24 34 -47 32 -51 64 -56 122 -22 30 18 35 26 31 45 -4 14 -2
24 4 24 6 0 -3 26 -19 58 -40 80 -46 149 -22 243 11 42 33 104 50 138 34 66
35 71 22 71 -4 0 -22 -30 -39 -67z m-123 -249 c-6 -8 -3 -13 12 -17 15 -4 20
-11 15 -23 -4 -11 2 -27 19 -44 19 -20 27 -41 31 -83 3 -30 1 -57 -3 -60 -15
-8 -68 -18 -58 -10 18 14 16 33 -3 33 -44 0 -74 88 -51 145 7 17 13 35 13 40
1 6 5 21 10 34 6 18 10 20 17 10 4 -7 4 -18 -2 -25z"/>
<path d="M1625 759 c-44 -16 -92 -35 -107 -40 -24 -9 -32 -7 -59 15 -20 17
-40 25 -57 23 -25 -3 -45 -27 -23 -27 6 0 20 -20 31 -45 22 -49 76 -85 128
-85 24 0 32 -7 51 -47 39 -81 38 -217 -2 -244 -16 -11 -142 2 -204 22 -69 23
-132 67 -180 127 -44 55 -99 158 -113 212 -6 25 -18 55 -26 68 -16 25 -39 30
-30 7 3 -8 1 -15 -5 -15 -5 0 -7 -12 -3 -27 5 -23 4 -26 -7 -15 -7 6 -17 12
-22 12 -6 0 -5 -5 0 -12 6 -7 11 -43 12 -81 1 -37 11 -100 22 -140 54 -194
152 -286 362 -339 156 -39 328 -9 401 72 45 50 54 96 31 168 -23 74 -67 131
-148 192 l-69 52 34 30 c23 20 27 28 13 23 -19 -6 -19 -5 -3 11 13 13 14 22 7
43 -7 17 -7 27 0 29 12 4 59 41 51 41 -3 0 -41 -14 -85 -30z m-16 -58 c9 -6
10 -14 5 -22 -5 -8 -9 -18 -9 -23 0 -5 -8 -14 -17 -19 -13 -9 -21 -7 -36 6
-10 9 -27 17 -38 17 -16 -1 -15 -3 6 -16 l25 -15 -25 7 c-22 6 -50 27 -50 37
0 3 18 4 39 3 22 -1 38 1 35 5 -2 4 3 9 11 13 9 3 15 0 15 -9 0 -8 5 -15 11
-15 6 0 8 9 4 20 -7 21 1 25 24 11z m-535 -106 c3 -8 2 -22 -1 -32 -4 -11 -3
-14 6 -9 14 9 41 -22 34 -40 -2 -6 3 -14 11 -17 9 -4 16 -13 16 -22 0 -8 4
-15 10 -15 5 0 6 -8 3 -17 -5 -12 -2 -15 8 -11 9 4 30 -10 54 -33 54 -55 131
-94 212 -109 37 -7 73 -16 78 -21 17 -13 96 -1 116 17 23 21 40 103 35 172 -3
37 -1 52 7 49 7 -3 11 -8 10 -13 -1 -5 10 -10 24 -11 24 -1 37 -12 44 -38 1
-5 9 -16 16 -23 7 -7 13 -27 13 -44 0 -23 4 -29 15 -24 25 9 24 -71 -2 -115
-15 -25 -81 -56 -110 -50 -7 1 -13 -5 -13 -13 0 -17 -42 -32 -59 -22 -5 4 -12
2 -15 -3 -8 -12 -58 -3 -68 12 -6 9 -8 9 -8 0 0 -17 -32 -21 -55 -6 -12 7 -34
12 -50 12 -40 -1 -109 17 -113 31 -2 5 -8 8 -13 4 -5 -3 -9 5 -9 17 0 18 -2
19 -15 9 -12 -10 -23 -6 -60 24 -25 21 -45 44 -45 52 0 8 -4 14 -10 14 -5 0
-12 11 -16 24 -3 14 -12 27 -19 29 -7 3 -17 19 -23 36 -9 25 -8 29 4 24 8 -3
14 0 14 6 0 6 -6 11 -14 11 -16 0 -24 26 -32 103 -4 35 -2 57 4 57 5 0 12 -7
16 -15z"/>
</g>
</svg>
