<?xml version="1.0" standalone="no"?>
<!DOCTYPE svg PUBLIC "-//W3C//DTD SVG 20010904//EN"
 "http://www.w3.org/TR/2001/REC-SVG-20010904/DTD/svg10.dtd">
<svg version="1.0" xmlns="http://www.w3.org/2000/svg"
 width="254.000000pt" height="227.000000pt" viewBox="0 0 254.000000 227.000000"
 preserveAspectRatio="xMidYMid meet">
<metadata>
Created by potrace 1.16, written by Peter Selinger 2001-2019
</metadata>
<g transform="translate(0.000000,227.000000) scale(0.100000,-0.100000)"
fill="#000000" stroke="none">
<path d="M953 2079 c-42 -27 -42 -55 -2 -77 63 -35 62 -33 39 -86 -22 -53 -20
-68 7 -44 44 39 83 50 130 38 53 -13 64 -6 83 49 16 50 10 64 -39 95 -75 48
-167 58 -218 25z"/>
<path d="M1150 1883 c-8 -3 -23 -12 -32 -21 -10 -8 -54 -29 -98 -47 -44 -19
-132 -61 -196 -95 l-117 -62 -53 11 c-66 13 -81 8 -89 -30 -16 -74 62 -127
188 -128 78 -1 92 4 167 69 58 49 110 86 110 77 0 -3 -36 -67 -80 -143 -72
-125 -97 -186 -70 -169 6 3 10 1 10 -4 0 -6 -5 -11 -11 -11 -5 0 -8 -4 -5 -9
5 -8 -30 -90 -43 -101 -8 -7 -12 -30 -5 -30 3 0 17 13 30 30 14 16 38 38 52
49 l27 19 0 -122 c0 -140 10 -165 86 -203 l43 -22 31 24 c26 20 30 29 27 62
-2 21 -9 45 -16 53 -8 8 -16 31 -20 50 -10 61 32 132 142 240 86 85 195 161
208 147 8 -8 -22 -62 -85 -156 -35 -53 -51 -86 -44 -88 15 -5 -5 -51 -31 -72
-9 -8 -16 -17 -16 -22 0 -5 28 9 62 31 33 22 66 40 72 40 17 0 76 -150 83
-211 9 -86 44 -135 109 -157 25 -8 40 -6 74 9 60 27 81 51 133 154 66 129 119
295 132 415 8 77 -28 141 -105 187 -94 56 -185 39 -367 -68 -116 -69 -271
-207 -347 -309 l-40 -55 -9 35 c-5 19 -16 52 -25 73 -14 33 -14 39 0 50 8 6
46 58 83 115 67 103 86 122 145 155 18 9 34 25 37 35 2 10 14 22 26 27 32 14
29 81 -4 107 -19 15 -148 80 -153 77 0 0 -8 -3 -16 -6z m548 -308 c8 -7 -33
-199 -63 -295 -53 -168 -62 -182 -101 -139 -10 11 -40 36 -66 56 -27 19 -48
42 -48 52 0 9 29 46 65 81 80 79 83 101 25 164 -36 38 -38 45 -25 56 28 23
107 40 160 33 28 -3 51 -7 53 -8z"/>
<path d="M1815 840 c-3 -5 -16 -10 -27 -10 -21 0 -21 -1 4 -27 14 -16 24 -35
23 -44 -2 -9 -29 -51 -60 -93 -32 -42 -55 -79 -52 -83 6 -5 28 17 57 57 21 29
126 41 173 19 20 -9 30 -8 51 6 52 34 25 89 -81 163 -34 23 -77 29 -88 12z"/>
<path d="M895 713 c-20 -38 -33 -59 -30 -48 4 15 0 21 -13 22 -20 2 -66 -67
-97 -141 -9 -21 -26 -51 -37 -67 -17 -23 -20 -37 -15 -79 8 -64 69 -168 104
-176 23 -6 102 21 104 35 8 45 4 83 -16 121 -45 90 -38 214 21 348 32 73 21
65 -21 -15z"/>
<path d="M1568 738 l-77 -31 -32 27 c-22 19 -38 25 -53 20 -26 -8 -45 -24 -28
-24 6 0 21 -20 32 -45 22 -49 76 -85 128 -85 24 0 32 -7 51 -47 29 -59 38
-151 21 -203 -10 -30 -18 -39 -40 -42 -48 -7 -153 9 -215 32 -108 41 -210 169
-265 329 -28 82 -47 100 -56 52 -4 -17 -12 -31 -18 -31 -18 0 -8 -132 16 -220
39 -148 111 -242 226 -296 195 -92 440 -80 536 26 45 50 54 96 31 168 -23 75
-67 131 -149 193 l-68 51 27 23 c16 12 25 27 21 33 -3 6 -2 13 2 16 5 3 7 17
4 31 -2 14 1 32 8 40 20 24 -15 18 -102 -17z"/>
</g>
</svg>
